<svg width="14" height="14" viewBox="0 0 14 14" fill="none" xmlns="http://www.w3.org/2000/svg">
<path d="M11.9601 1.97318C10.7647 0.818077 9.17551 0.122013 7.48842 0.0145896C5.80133 -0.0928334 4.13132 0.395707 2.78935 1.38924C1.44737 2.38278 0.524891 3.8136 0.193674 5.41529C-0.137544 7.01697 0.145074 8.68036 0.988907 10.0957L0 13.5842L3.6953 12.648C4.7174 13.1856 5.86262 13.4673 7.0264 13.4674H7.02926C8.40775 13.4674 9.75527 13.0725 10.9015 12.3328C12.0477 11.593 12.9412 10.5416 13.4689 9.31135C13.9967 8.08113 14.135 6.72738 13.8664 5.42122C13.5979 4.11507 12.9345 2.91516 11.9601 1.97318ZM7.02983 12.3304H7.02755C5.99001 12.3305 4.97152 12.0612 4.07874 11.5505L3.8672 11.4292L1.67441 11.9846L2.25968 9.91991L2.12189 9.70818C1.43918 8.65714 1.1374 7.41672 1.26396 6.18192C1.39052 4.94713 1.93827 3.78797 2.82108 2.88667C3.7039 1.98537 4.87173 1.39304 6.141 1.20278C7.41027 1.01253 8.70899 1.23514 9.83302 1.83562C10.9571 2.4361 11.8427 3.3804 12.3506 4.52009C12.8586 5.65977 12.9601 6.93021 12.6392 8.1317C12.3182 9.33318 11.5931 10.3976 10.5778 11.1576C9.56246 11.9176 8.31429 12.3302 7.02983 12.3304ZM10.2068 8.13997C10.0326 8.05584 9.17631 7.64878 9.0166 7.59263C8.8569 7.53648 8.74084 7.50849 8.62478 7.67677C8.50871 7.84504 8.17482 8.22411 8.07325 8.33623C7.97167 8.44835 7.87009 8.46253 7.6959 8.37839C7.18239 8.1808 6.70845 7.89827 6.29535 7.54347C5.91455 7.20346 5.58804 6.81079 5.32645 6.37827C5.22487 6.20981 5.31559 6.11886 5.40268 6.03491C5.48101 5.95961 5.57687 5.83847 5.66396 5.74034C5.73561 5.65534 5.79427 5.56085 5.83815 5.45977C5.86128 5.41338 5.87207 5.36214 5.86954 5.31071C5.86701 5.25928 5.85124 5.20926 5.82367 5.1652C5.78022 5.08106 5.43184 4.25314 5.28662 3.91641C5.14521 3.58833 5.00075 3.6327 4.89479 3.62773C4.78356 3.62315 4.67223 3.62119 4.5609 3.62184C4.47265 3.62407 4.38583 3.64392 4.3059 3.68014C4.22597 3.71635 4.15467 3.76815 4.09646 3.83227C3.8995 4.01243 3.74355 4.23025 3.63855 4.47185C3.53355 4.71345 3.4818 4.97354 3.48662 5.23553C3.48662 6.064 4.11076 6.8632 4.19785 6.97551C4.28495 7.08781 5.42593 8.78674 7.17315 9.51616C7.49742 9.65111 7.82885 9.76941 8.16606 9.87057C8.52138 9.97485 8.89697 9.99767 9.26302 9.93721C9.59767 9.88898 10.2935 9.53034 10.4387 9.13746C10.5526 8.88616 10.5879 8.60815 10.5403 8.3377C10.4966 8.26756 10.3809 8.22411 10.2068 8.13997Z" fill="#42D54B"/>
</svg>
