<svg width="20" height="22" viewBox="0 0 20 22" fill="none" xmlns="http://www.w3.org/2000/svg">
<path d="M6 16.2H14M9.0177 1.96404L2.23539 7.23917C1.78202 7.59179 1.55534 7.7681 1.39203 7.9889C1.24737 8.18449 1.1396 8.40483 1.07403 8.63909C1 8.90356 1 9.19074 1 9.76509V17C1 18.1201 1 18.6802 1.21799 19.108C1.40973 19.4843 1.71569 19.7903 2.09202 19.982C2.51984 20.2 3.07989 20.2 4.2 20.2H15.8C16.9201 20.2 17.4802 20.2 17.908 19.982C18.2843 19.7903 18.5903 19.4843 18.782 19.108C19 18.6802 19 18.1201 19 17V9.76509C19 9.19074 19 8.90356 18.926 8.63909C18.8604 8.40483 18.7526 8.18449 18.608 7.9889C18.4447 7.7681 18.218 7.59179 17.7646 7.23917L10.9823 1.96404C10.631 1.69079 10.4553 1.55416 10.2613 1.50164C10.0902 1.4553 9.9098 1.4553 9.73865 1.50164C9.54468 1.55416 9.36902 1.69079 9.0177 1.96404Z" stroke="#667085" stroke-width="2" stroke-linecap="round" stroke-linejoin="round"/>
</svg>
